<?xml version="1.0" encoding="UTF-8" standalone="no"?>
<!-- Created with Inkscape (http://www.inkscape.org/) -->

<svg
   width="81.224442mm"
   height="118.85191mm"
   viewBox="0 0 81.224442 118.85191"
   version="1.1"
   id="svg1"
   xml:space="preserve"
   inkscape:version="1.4.3 (0d15f75042, 2025-12-25)"
   sodipodi:docname="lemon.svg"
   xmlns:inkscape="http://www.inkscape.org/namespaces/inkscape"
   xmlns:sodipodi="http://sodipodi.sourceforge.net/DTD/sodipodi-0.dtd"
   xmlns="http://www.w3.org/2000/svg"
   xmlns:svg="http://www.w3.org/2000/svg"><sodipodi:namedview
     id="namedview1"
     pagecolor="#ffffff"
     bordercolor="#000000"
     borderopacity="0.25"
     inkscape:showpageshadow="2"
     inkscape:pageopacity="0.0"
     inkscape:pagecheckerboard="0"
     inkscape:deskcolor="#d1d1d1"
     inkscape:document-units="mm"
     inkscape:zoom="0.53584806"
     inkscape:cx="-344.31402"
     inkscape:cy="-99.841734"
     inkscape:window-width="2536"
     inkscape:window-height="1390"
     inkscape:window-x="0"
     inkscape:window-y="0"
     inkscape:window-maximized="1"
     inkscape:current-layer="layer1" /><defs
     id="defs1" /><g
     inkscape:label="Layer 1"
     inkscape:groupmode="layer"
     id="layer1"
     transform="translate(-66.041127,-8.1695104)"><g
       id="g6"
       transform="matrix(1.0000293,0,0,1.0000294,-0.00432352,-0.00372653)"><path
         id="path3-2-0-6"
         style="fill:#dae1b6;fill-opacity:1;stroke-width:1.83695;stroke-linejoin:bevel"
         d="m 101.52617,17.002006 c 5.87225,5.818279 7.16514,12.885033 4.94999,15.120728 -2.21515,2.235696 -11.08009,-0.0026 -16.95233,-5.820854 -4.12686,-4.088952 -4.48354,-9.707529 -4.71717,-12.86888 -0.0969,-1.31046 -0.72254,-2.431309 0.20812,-2.336907 3.2151,0.326127 10.63916,0.08763 16.51139,5.905913 z"
         sodipodi:nodetypes="ssssss" /><path
         id="path3-2-0"
         style="fill:#dae1b6;fill-opacity:1;stroke-width:1.83695;stroke-linejoin:bevel"
         d="m 113.46129,14.080985 c -5.87224,5.818279 -7.16513,12.885033 -4.94998,15.120728 2.21515,2.235696 11.08009,-0.0026 16.95233,-5.820854 4.12686,-4.088952 4.48354,-9.707529 4.71717,-12.86888 0.0969,-1.3104604 0.72254,-2.431309 -0.20812,-2.336907 -3.2151,0.326127 -10.63916,0.08763 -16.5114,5.905913 z"
         sodipodi:nodetypes="ssssss" /><path
         id="path1"
         style="fill:#f6db4d;fill-opacity:1;stroke-width:1.65229;stroke-linejoin:bevel"
         d="m 147.26557,75.916458 c 0,18.810115 -5.41848,31.680792 -25.97594,40.499402 -5.32666,2.28499 -8.7454,10.60533 -14.75972,10.60533 -6.26043,0 -10.012318,-8.6946 -15.634081,-11.18819 -19.303945,-8.56246 -24.854702,-21.388442 -24.854702,-39.916542 0,-18.700337 4.070721,-29.393075 25.237234,-40.740357 2.688058,-1.441057 5.052432,-4.819186 7.675019,-7.146613 2.44195,-2.167125 5.1242,-3.341206 8.07029,-3.341206 2.97085,0 5.42985,1.16989 7.50827,3.342896 2.31324,2.418504 4.18927,5.98205 7.05774,7.375054 22.0483,10.707211 25.67589,22.001506 25.67589,40.510226 z"
         sodipodi:nodetypes="sssssssssss" /><path
         style="fill:#405a56;fill-opacity:1;stroke-width:1.646;stroke-linejoin:bevel"
         d="m 94.532422,32.561379 c 0,0 8.152198,3.913535 12.480518,3.662413 3.81434,-0.221302 10.55143,-4.477798 10.55143,-4.477798 0,0 -5.56974,-8.08301 -9.94043,-9.313428 -0.8294,-0.233488 -1.7635,0.132692 -2.5313,0.523717 -4.24013,2.159412 -10.560218,9.605096 -10.560218,9.605096 z"
         id="path2"
         sodipodi:nodetypes="cacasc" /><path
         id="path3"
         style="fill:#b0cb52;fill-opacity:1;stroke-width:1.49378;stroke-linejoin:bevel"
         d="m 102.10705,19.9447 c 4.90626,4.595324 6.11865,10.310109 4.36911,12.178034 -1.74954,1.867927 -9.006683,0.251038 -13.912949,-4.344287 -3.44801,-3.229488 -3.86629,-7.788488 -4.128427,-10.352903 -0.108662,-1.063015 -0.642877,-1.95982 0.115782,-1.904346 2.6209,0.191646 8.650212,-0.171823 13.556484,4.423502 z"
         sodipodi:nodetypes="ssssss" /><path
         id="path3-2"
         style="fill:#b0cb52;fill-opacity:1;stroke-width:1.49512;stroke-linejoin:bevel"
         d="m 112.54018,16.894722 c -4.77951,4.735585 -5.83181,10.487324 -4.02887,12.306991 1.80295,1.819667 9.01826,-0.0021 13.79777,-4.737682 3.35891,-3.328061 3.64922,-7.901106 3.83937,-10.474178 0.0788,-1.066603 0.58809,-1.978879 -0.16939,-1.902044 -2.61682,0.26544 -8.65937,0.07132 -13.43888,4.806913 z"
         sodipodi:nodetypes="ssssss" /><path
         id="rect4"
         style="fill:#405a56;stroke:#405a56;stroke-width:1.26507;stroke-linecap:round;stroke-linejoin:round;stroke-dasharray:none"
         d="m 96.391444,21.917762 2.098204,1.753286 c 1.938282,1.619653 5.586442,5.279533 8.355082,7.94458 0.0281,0.02709 0.029,0.07156 0.002,0.09971 l -0.58682,0.609628 c -0.0271,0.02814 -0.0684,0.02534 -0.0997,0.0019 v 0 c -1.6419,-4.124721 -5.40912,-6.611272 -9.768656,-10.409104 z"
         sodipodi:nodetypes="cssssssc" /><path
         id="rect4-7"
         style="fill:#405a56;stroke:#405a56;stroke-width:1.15318;stroke-linecap:round;stroke-linejoin:round"
         d="m 114.67883,22.93589 -1.28668,1.075164 c -1.1886,0.993216 -3.42576,3.237555 -5.12356,4.871836 -0.0172,0.01661 -0.0178,0.04389 -0.001,0.06114 l 0.35985,0.37384 c 0.0166,0.01726 0.042,0.01554 0.0612,0.0012 v 0 c 1.00686,-2.529393 3.31702,-4.054215 5.99041,-6.383151 z"
         sodipodi:nodetypes="cssssssc" /><path
         style="fill:none;fill-opacity:1;stroke:#faf9fa;stroke-width:5.03301;stroke-linecap:round;stroke-linejoin:round;stroke-dasharray:none;stroke-opacity:1"
         d="m 80.236906,69.867829 c 0,0 2.932588,-8.633516 6.0084,-12.686017 3.211119,-4.230774 10.532749,-8.545903 10.532749,-8.545903"
         id="path4"
         sodipodi:nodetypes="csc" /><path
         id="path1-3"
         style="fill:#f6ca41;fill-opacity:1;stroke-width:1.65229;stroke-linejoin:bevel"
         d="m 133.92039,42.858596 c 0,0 0.98,36.543175 -10.63726,48.18951 -12.13916,12.169544 -50.32646,11.240974 -50.32646,11.240974 3.86701,5.38147 9.62833,9.85813 17.93895,13.54439 5.62177,2.49359 9.37376,11.18795 15.63419,11.18795 6.01432,0 9.43316,-8.32057 14.75982,-10.60556 20.55746,-8.81861 25.97568,-21.68922 25.97568,-40.499334 0,-14.311359 -2.16855,-24.309445 -13.34492,-33.05793 z"
         sodipodi:nodetypes="cacssssc" /></g></g></svg>
