<?xml version="1.0" encoding="UTF-8" standalone="no"?>
<!-- Created with Inkscape (http://www.inkscape.org/) -->

<svg
   width="140.64421mm"
   height="159.57278mm"
   viewBox="0 0 140.64421 159.57278"
   version="1.1"
   id="svg1"
   xml:space="preserve"
   inkscape:version="1.4.3 (0d15f75042, 2025-12-25)"
   sodipodi:docname="zebra.svg"
   xmlns:inkscape="http://www.inkscape.org/namespaces/inkscape"
   xmlns:sodipodi="http://sodipodi.sourceforge.net/DTD/sodipodi-0.dtd"
   xmlns="http://www.w3.org/2000/svg"
   xmlns:svg="http://www.w3.org/2000/svg"><sodipodi:namedview
     id="namedview1"
     pagecolor="#ffffff"
     bordercolor="#000000"
     borderopacity="0.25"
     inkscape:showpageshadow="2"
     inkscape:pageopacity="0.0"
     inkscape:pagecheckerboard="0"
     inkscape:deskcolor="#d1d1d1"
     inkscape:document-units="mm"
     inkscape:zoom="0.77418173"
     inkscape:cx="-123.35605"
     inkscape:cy="38.104748"
     inkscape:window-width="2536"
     inkscape:window-height="1390"
     inkscape:window-x="0"
     inkscape:window-y="0"
     inkscape:window-maximized="1"
     inkscape:current-layer="layer1" /><defs
     id="defs1" /><path
     id="path15"
     style="fill:#ffffff;fill-opacity:1;stroke-width:5.03301;stroke-linecap:round;stroke-linejoin:round"
     d="m 140.6442,79.786389 c 0,19.83809 -13.94135,19.97563 -25.9234,33.933441 -14.63274,17.0456 -29.636266,45.85295 -53.86299,45.85295 -44.064807,0 -49.212078,-27.34506 -55.9132984,-60.939211 C -0.76352043,70.018409 -6.1969934,42.25881 17.180262,28.346138 29.106382,21.248461 45.971919,0 60.85781,0 78.648864,0 79.164474,4.985394 92.433514,14.829562 112.02917,29.36739 140.6442,53.512639 140.6442,79.786389 Z"
     sodipodi:nodetypes="ssssssss" /><g
     inkscape:label="Layer 1"
     inkscape:groupmode="layer"
     id="layer1"
     transform="translate(-32.969076,-43.267861)"><g
       id="g2"
       transform="matrix(0.23305727,0,0,0.23305727,-22.305856,7.8724695)"
       style="fill:#1f1f1f;fill-opacity:1"><path
         fill="#000000"
         opacity="1"
         stroke="none"
         d="m 693.71777,573.9079 c -15.1958,7.98211 -27.56121,5.90851 -39.20147,-6.03577 -5.21967,-5.35602 -10.75873,-10.40069 -15.67884,-15.13086 0.89508,4.29969 4.98706,10.67316 11.1084,17.85523 4.89221,5.74011 10.86237,10.02893 18.40235,13.5932 -6.09449,3.88128 -11.64942,3.50537 -16.99866,2.97778 -12.20349,-1.20355 -22.18866,-5.81592 -26.28845,-18.67114 -1.8418,-5.7749 -5.7179,-10.89051 -4.53369,-17.58008 1.55779,-8.79987 6.34448,-14.45606 14.88226,-16.93793 1.91351,-0.55627 3.87292,-1.039 5.84503,-1.29498 10.54828,-1.36932 16.48547,-7.39533 17.78424,-17.83362 1.37866,-11.07971 0.15259,-21.47104 -7.82599,-30.31009 -13.79748,-15.28567 -31.08282,-22.96139 -51.39245,-24.16754 -3.27668,-0.19461 -6.64966,0.42984 -9.91456,1.02463 -5.13787,0.93591 -9.96118,0.16693 -14.54272,-2.15204 -4.20038,-2.12601 -6.82239,-0.78644 -8.83936,3.24451 -9.38043,18.74664 -12.46179,37.8182 -3.44073,57.65179 0.75281,1.65509 1.26538,3.42224 1.83295,5.15582 0.085,0.25989 -0.14252,0.62213 -0.22974,0.93586 -13.90503,3.48797 -25.00836,-5.57422 -26.02161,-20.83734 -1.03576,-15.60169 3.83777,-29.91633 8.99988,-44.19181 3.73395,-10.32602 8.16766,-20.42706 9.34528,-31.5112 0.10101,-0.95154 0.45849,-1.95389 1.62408,-2.3305 1.59174,0.19036 1.95099,1.6268 2.60126,2.72613 8.93988,15.11286 10.74829,15.9809 28.12848,13.37695 3.28992,-0.49285 6.57904,-0.99316 9.86175,-1.53115 4.62153,-0.75745 8.7428,0.15585 12.88007,2.56182 17.74506,10.31971 33.87201,22.44056 45.89844,39.40134 1.14746,1.61823 2.60223,3.04086 4.03912,4.42471 1.23785,1.1922 2.65991,2.13962 4.35199,0.43372 0.44159,-2.30322 -1.33203,-3.60864 -2.45416,-5.16177 -10.0091,-13.85343 -22.31897,-25.61197 -34.4458,-37.5156 -7.04151,-6.91186 -13.62598,-14.13028 -19.06604,-22.40872 -4.12049,-6.27042 -8.75116,-12.20041 -14.40613,-17.20532 -3.00049,-2.65567 -3.75616,-5.54282 -2.22009,-9.32895 3.89032,-9.58847 3.19189,-19.96011 4.85803,-29.93329 0.38281,-2.29144 0.99457,-4.54608 1.53711,-6.80899 0.54504,-2.27316 -0.85523,-3.38266 -2.53644,-4.31717 -2.0531,-1.14133 -3.10693,0.28519 -4.0329,1.71262 -3.60382,5.55539 -4.34662,11.88559 -4.18909,18.22543 0.18268,7.34631 -1.67718,14.13861 -4.0628,20.93637 -1.31451,3.74567 -3.7301,4.74588 -7.35974,4.0788 -3.77814,-0.69443 -3.49805,-3.51233 -3.26904,-6.17777 0.60491,-7.04153 0.2409,-13.93396 -1.95417,-20.73907 -1.62439,-5.03577 -0.0935,-9.89182 1.85859,-14.54526 1.73895,-4.14569 3.54199,-8.28021 5.6123,-12.26617 1.59906,-3.07883 0.91034,-5.00425 -2.13287,-6.35022 -0.75977,-0.33603 -1.43891,-0.89246 -2.22119,-1.1334 -4.91907,-1.51544 -4.7771,-3.84054 -2.37855,-8.06662 6.47278,-11.4046 9.54401,-23.69033 7.44733,-36.95276 -0.37884,-2.39639 -1.0061,-4.87722 -0.29303,-7.33511 13.10059,-0.47256 56.25678,34.96475 60.60712,50.09003 -11.51917,3.28619 -23.401,5.88821 -33.94342,13.27102 8.29065,7.91935 15.35852,16.27799 22.6903,24.39798 1.89777,2.10169 3.59186,4.40668 5.62458,6.36377 9.4591,9.10712 14.6803,19.9076 16.45733,33.16529 2.06952,15.43967 10.87592,28.52759 18.28437,41.88525 10.34143,18.64554 20.76617,37.29068 32.20672,55.26688 9.68549,15.21869 9.54822,29.95447 1.58319,45.33386 -2.96929,5.73334 -5.06488,12.03418 -10.47882,16.67145 M 658.0824,464.45517 c 6.07275,7.28339 9.92834,16.50406 19.08014,22.93677 -0.7508,-4.06546 -2.22828,-6.09421 -3.61493,-8.13129 -15.54254,-22.83227 -30.84857,-45.83554 -47.92114,-67.57947 -3.80121,-4.84124 -6.04749,-10.17328 -7.09388,-16.23904 -1.11279,-6.45114 -2.10431,-13.01624 -5.80951,-18.84064 -0.5241,7.58774 -0.0538,15.18387 -1.3811,22.66013 -1.25183,7.05102 1.51282,12.35473 6.49341,17.3251 14.62884,14.59888 27.85693,30.42679 40.24701,47.86844 m 25.80969,75.27011 c -1.22662,-4.92712 -4.21973,-8.24475 -9.17474,-9.43341 -2.3161,-0.55554 -3.6048,1.12439 -4.50806,3.07929 -1.9082,4.13006 -0.95209,9.37823 2.78302,12.73455 2.8031,2.51886 6.29004,5.96155 9.9389,4.0213 3.35694,-1.78491 1.68415,-6.24011 0.96088,-10.40173 z"
         id="path1"
         style="fill:#1f1f1f;fill-opacity:1" /><path
         fill="#000000"
         opacity="1"
         stroke="none"
         d="m 528.67926,656.63757 c -9.65039,11.66217 -20.79773,21.11121 -32.91867,29.48737 -2.3884,1.65039 -4.5238,2.32458 -7.31482,0.72253 -32.5766,-18.69873 -62.11841,-40.73291 -82.38931,-73.307 -14.23728,-22.87836 -22.31766,-47.86884 -26.33548,-74.3208 -2.37686,-15.64862 -3.7923,-31.39222 -3.91947,-47.22587 -0.0912,-11.34893 1.07737,-22.61801 3.45896,-33.69967 0.99991,-4.65274 -0.12744,-7.57468 -4.29911,-9.81964 -6.30627,-3.39371 -12.33963,-7.30069 -18.68594,-10.61194 -4.30826,-2.24789 -5.26309,-4.95712 -3.07846,-9.25259 4.75647,-9.35236 9.35788,-18.78397 13.97559,-28.2063 1.36544,-2.78608 3.027,-3.79758 5.82782,-1.68116 11.6961,8.83802 23.41592,17.64484 35.16079,26.41788 2.82972,2.11368 2.31275,4.97022 1.87281,7.74542 -2.06562,13.03028 -3.16242,26.15332 -2.61624,39.31739 1.18795,28.63391 3.32028,57.11078 13.07577,84.49108 10.57037,29.66736 29.56622,52.60114 54.88315,70.70374 5.41903,3.87476 11.0842,7.40613 16.48962,11.29901 2.93436,2.11328 5.30213,1.94318 7.98673,-0.40204 16.14456,-14.1037 30.01229,-29.84399 37.01474,-50.62481 0.37005,-1.09839 0.86627,-2.16394 1.40783,-3.18982 0.21082,-0.39923 0.7099,-0.64624 1.55835,-1.37616 3.6178,6.47662 5.05896,13.40362 6.40888,20.29913 3.35382,17.13104 -3.68439,31.61066 -12.08985,45.65833 -1.53314,2.56219 -3.49029,4.8706 -5.47369,7.57592 z"
         id="path2"
         style="fill:#1f1f1f;fill-opacity:1" /><path
         fill="#000000"
         opacity="1"
         stroke="none"
         d="m 384.20532,619.85266 c 16.86652,29.88849 40.80588,52.4256 68.77277,71.06165 7.49322,4.99316 15.14462,9.73279 23.15668,13.83612 3.17273,1.62488 3.93118,3.76745 2.76443,6.91394 -3.06842,8.27478 -6.15991,16.5412 -9.17828,24.83423 -1.13111,3.10778 -2.73456,4.12585 -6.01648,2.50793 -46.62705,-22.9859 -85.8404,-54.23639 -111.40436,-100.48145 -14.18424,-25.65917 -22.3635,-53.26562 -25.73172,-82.40441 -2.86765,-24.80841 -2.13645,-49.47794 0.96588,-74.19754 0.78095,-6.22251 3.24957,-9.98444 9.22934,-11.97886 8.47983,-2.82815 16.53888,-6.89767 26.46796,-9.32778 -10.28388,55.72543 -6.13816,108.89273 20.97378,159.23617 z"
         id="path3"
         style="fill:#1f1f1f;fill-opacity:1" /><path
         fill="#000000"
         opacity="1"
         stroke="none"
         d="m 523.24078,562.24585 c 4.72626,-4.6579 9.19641,-9.06995 13.66663,-13.48206 0.41693,0.13758 0.83386,0.27515 1.25073,0.41266 -0.003,9.73542 -0.0105,19.48542 -4.8316,28.55884 -6.48969,12.21375 -15.36627,22.5542 -25.56079,31.76697 -6.91944,6.25311 -7.06305,6.13586 -14.75354,0.66516 -20.25309,-14.40723 -37.34549,-31.64508 -48.28504,-54.32043 -6.78988,-14.0741 -10.79474,-29.03242 -12.80813,-44.43427 -1.9202,-14.68909 -4.10651,-29.3139 -7.21311,-43.79132 -3.72272,-17.34866 -3.84265,-34.69678 0.15418,-51.96317 0.95291,-4.11651 -0.32743,-6.53793 -3.21967,-9.02499 -11.11566,-9.55832 -22.01068,-19.37671 -33.24438,-28.79224 -3.59763,-3.01541 -4.01685,-5.33166 -1.15143,-9.05151 6.00656,-7.79764 12.3266,-15.29819 19.0473,-22.48624 2.5914,-2.7716 4.67285,-3.08697 7.42246,-0.18853 11.80987,12.44934 23.74484,24.77999 35.61361,37.17361 1.86908,1.95169 3.54846,3.94479 2.53971,7.05862 -7.44684,22.98703 -4.91611,45.65967 2.30865,68.15351 4.65091,14.48028 5.82053,29.66122 9.02057,44.43561 5.70572,26.34262 19.18155,47.62741 40.77585,63.78341 7.17303,5.36652 7.42578,5.4245 14.49615,-0.28332 1.55396,-1.25452 3.013,-2.62659 4.77185,-4.19031 z"
         id="path4"
         style="fill:#1f1f1f;fill-opacity:1" /><path
         fill="#000000"
         opacity="1"
         stroke="none"
         d="m 502.36801,532.63489 c -13.91333,-13.68927 -21.48813,-30.47898 -25.49038,-48.77454 -4.58124,-20.94247 -8.58378,-42.01535 -13.2851,-62.93964 -3.20764,-14.27651 -2.43015,-28.50265 1.74267,-42.43142 1.57892,-5.27039 0.52244,-9.03653 -2.91513,-13.14011 -9.94595,-11.87314 -19.43429,-24.12863 -29.31201,-36.06045 -2.70904,-3.2724 -2.37298,-5.17118 1.02146,-7.5452 8.06186,-5.6383 16.29644,-10.96701 24.83813,-15.85419 3.30774,-1.89258 5.39459,-1.47015 7.35724,1.8096 8.46695,14.14893 17.02991,28.24057 25.61447,42.31864 1.44327,2.36688 1.55396,4.56646 0.33392,7.06058 -4.75064,9.71203 -7.08126,20.10162 -7.68661,30.80664 -0.45255,8.00351 0.50693,16.08838 2.96756,23.65469 4.69696,14.44296 4.9762,29.43497 6.86075,44.25281 2.51193,19.75079 8.22412,38.34127 21.48749,53.92865 6.73419,7.91406 14.9505,13.64257 24.23272,18.06836 4.78479,2.28137 4.90967,3.05651 1.45905,7.23517 -3.52338,4.2669 -7.70526,7.79357 -12.25806,10.94409 -3.14709,2.17779 -6.00879,2.1278 -9.25354,0.20263 -6.34418,-3.76428 -12.06979,-8.29577 -17.71463,-13.53631 z"
         id="path5"
         style="fill:#1f1f1f;fill-opacity:1" /><path
         fill="#000000"
         opacity="1"
         stroke="none"
         d="m 506.98795,283.74988 c 12.1025,-3.22367 23.94357,-5.35324 35.97537,-5.53855 1.07702,2.70401 -0.60602,3.93662 -1.6471,5.30658 -11.19891,14.73648 -16.87262,31.22605 -15.87951,49.83149 0.11084,2.07751 -0.21125,3.97396 -1.32086,5.72882 -9.50318,15.02905 -10.65327,31.30447 -6.58967,48.0946 3.06397,12.65952 1.85797,24.69052 -3.07586,36.6189 -3.6904,8.92227 -6.95536,18.0202 -10.43897,27.02865 -0.41015,1.0607 -0.74643,2.23389 -2.57818,3.05292 -2.797,-3.76999 -2.34403,-8.26233 -2.18253,-12.48025 0.267,-6.9733 0.88825,-13.94449 2.38065,-20.7938 1.89318,-8.68847 0.75891,-17.22589 -1.3425,-25.69034 -3.93253,-15.84024 -2.67352,-31.08718 5.35733,-45.45761 2.44079,-4.36767 2.37344,-8.29547 0.29046,-12.77215 -6.25326,-13.43964 -12.13366,-27.05261 -18.36654,-40.50205 -1.74271,-3.76046 -1.14173,-5.79614 2.89929,-7.01587 5.41565,-1.63467 10.74896,-3.5419 16.51862,-5.41134 z"
         id="path6"
         style="fill:#1f1f1f;fill-opacity:1" /><path
         fill="#000000"
         opacity="1"
         stroke="none"
         d="m 533.67859,407.14947 c -0.86847,-4.31677 -1.77374,-8.19891 -2.56299,-12.10452 -1.46521,-7.25101 0.98425,-13.42254 5.42444,-18.99749 0.40491,-0.5084 0.953,-0.94654 1.51953,-1.26734 0.39117,-0.22156 0.92883,-0.18457 2.08923,-0.37762 -2.12164,12.56958 4.75794,22.08255 10.29853,32.02316 1.94329,3.48663 2.0744,6.72769 0.48089,10.42746 -6.1181,14.20441 -12.07501,28.47876 -18.01507,42.75903 -3.06977,7.38001 -5.36786,14.97049 -6.71546,22.90149 -1.47815,8.69904 0.43738,16.80908 3.10382,24.91281 0.54328,1.65109 1.92707,3.1825 0.79651,5.57947 -6.95746,-3.60513 -11.48913,-9.41425 -15.52356,-15.69833 -7.82324,-12.18537 -7.10119,-24.8049 -1.97412,-37.72269 4.97516,-12.53516 11.01849,-24.5845 16.46869,-36.90234 2.14276,-4.84281 4.81934,-9.54242 4.60956,-15.53309 z"
         id="path7"
         style="fill:#1f1f1f;fill-opacity:1" /><path
         fill="#000000"
         opacity="1"
         stroke="none"
         d="m 486.93304,734.10364 c 1.35544,-5.90357 2.79618,-11.37158 3.79096,-16.91962 0.96097,-5.35944 3.38199,-9.33954 7.93786,-12.59088 22.02399,-15.71808 38.86585,-35.68054 48.88294,-61.06696 0.94122,-2.38537 1.39514,-5.09387 4.7254,-7.78436 1.51813,20.49915 -1.9566,38.84546 -11.36749,55.8888 -12.8739,23.31506 -32.69076,39.47808 -55.53198,53.92608 -0.62442,-4.80932 1.03869,-7.84418 1.56231,-11.45306 z"
         id="path8"
         style="fill:#1f1f1f;fill-opacity:1" /><path
         fill="#000000"
         opacity="1"
         stroke="none"
         d="m 593.97528,499.87152 c -4.38074,2.33154 -5.3551,6.1221 -5.68201,10.25153 -0.65338,8.25396 1.03107,16.22113 2.89411,24.1795 0.39392,1.68268 1.75671,3.37647 0.38598,5.21668 -13.66876,-2.93506 -22.83581,-15.40638 -21.38427,-29.22312 0.36407,-3.46481 0.75787,-6.97983 1.67828,-10.323 2.82721,-10.26892 8.01807,-17.89032 19.80444,-19.74759 10.31977,-1.62612 20.34729,-5.06713 30.84375,-5.8663 10.49909,-0.79938 18.08112,4.48425 24.38007,12.1984 0.19488,0.23858 0.268,0.61529 0.2998,0.93731 0.0311,0.31516 -0.0634,0.6427 -0.20239,1.77973 -18.47625,-1.63452 -35.25775,5.90927 -53.01776,10.59686 z"
         id="path9"
         style="fill:#1f1f1f;fill-opacity:1" /><path
         fill="#000000"
         opacity="1"
         stroke="none"
         d="m 574.72046,307.50955 c -2.6358,22.68042 -15.13794,38.33478 -33.15595,51.36731 -6.87286,-14.0141 -9.69818,-27.62671 -6.5224,-42.26465 3.7165,-17.13043 13.00251,-30.7785 26.01477,-42.10766 4.57026,-3.97904 6.15259,-3.58582 8.22498,1.91632 3.71503,9.8634 6.21961,19.97745 5.4386,31.08868 m -30.43103,34.16956 c 0.2254,1.59518 0.095,3.36166 1.94354,4.19723 15.94965,-14.10696 22.61591,-38.84988 14.80542,-53.34881 -13.09192,13.71493 -18.70941,29.67154 -16.74896,49.15158 z"
         id="path10"
         style="fill:#1f1f1f;fill-opacity:1" /><path
         fill="#000000"
         opacity="1"
         stroke="none"
         d="m 644.66779,514.80579 c -7.36444,3.19641 -14.46247,6.01934 -21.81788,8.16552 -10.92108,3.18647 -13.58312,8.00763 -10.99847,19.26276 0.84338,3.67291 2.75696,7.10107 2.76385,11.02045 -7.58599,-0.34241 -17.13073,-8.53571 -18.21563,-15.47425 -2.56085,-16.37756 0.91858,-22.1853 16.63281,-27.42187 7.4043,-2.46735 14.82324,-4.91855 22.33185,-7.03565 5.39593,-1.52145 10.86651,-1.65069 15.85272,1.66596 3.73053,2.48132 3.77503,4.26687 0.0256,6.52035 -1.98742,1.19449 -4.14935,2.09848 -6.57482,3.29673 z"
         id="path11"
         style="fill:#1f1f1f;fill-opacity:1" /><path
         fill="#000000"
         opacity="1"
         stroke="none"
         d="m 637.80078,310.41525 c -0.6701,2.06796 -0.65503,4.03519 -2.98596,5.43497 -7.41565,-7.04153 -14.67413,-14.48218 -23.78815,-21.08221 8.51013,-8.12037 17.61316,-13.70728 28.63715,-18.40604 1.64392,11.96707 0.77032,22.84381 -1.86304,34.05328 z"
         id="path12"
         style="fill:#1f1f1f;fill-opacity:1" /><path
         fill="#000000"
         opacity="1"
         stroke="none"
         d="m 597.83008,419.19946 c 2.00195,2.82407 3.78308,5.36628 6.09827,8.67075 -8.81898,1.18478 -16.66279,3.01605 -24.79981,2.3974 -2.07642,-0.15787 -3.82184,-1.11005 -5.29761,-2.51395 -4.49359,-4.27478 -7.51031,-9.59372 -11.42926,-15.72555 9.29785,-1.51981 17.71161,-4.44983 26.37811,-2.85062 4.56952,0.8432 5.90345,6.41772 9.0503,10.02197 z"
         id="path13"
         style="fill:#1f1f1f;fill-opacity:1" /><path
         fill="#000000"
         opacity="1"
         stroke="none"
         d="m 554.5011,362.56677 c 3.82171,-4.10242 7.25317,-8.15042 12.46918,-9.75519 1.67517,2.12662 0.38598,3.62507 -0.18842,5.04038 -3.56476,8.78226 -4.49634,17.58249 -1.30914,26.75653 1.76953,5.09347 1.9956,10.42618 0.0176,15.63867 -0.8341,2.19797 -1.95379,3.44959 -4.4392,1.74091 -7.53882,-5.18274 -13.80878,-22.26236 -11.28571,-30.88141 0.90473,-3.09021 2.4483,-5.81284 4.73572,-8.53989 z"
         id="path14"
         style="fill:#1f1f1f;fill-opacity:1" /></g></g></svg>
